<svg width="125" height="30" viewBox="0 0 125 30" fill="none" xmlns="http://www.w3.org/2000/svg">
<path d="M41.6094 17.2266H43.9453C43.8984 17.9922 43.6875 18.6719 43.3125 19.2656C42.9427 19.8594 42.4245 20.3229 41.7578 20.6562C41.0964 20.9896 40.2995 21.1562 39.3672 21.1562C38.638 21.1562 37.9844 21.0312 37.4062 20.7812C36.8281 20.526 36.3333 20.1615 35.9219 19.6875C35.5156 19.2135 35.2057 18.6406 34.9922 17.9688C34.7786 17.2969 34.6719 16.5443 34.6719 15.7109V14.9219C34.6719 14.0885 34.7812 13.3359 35 12.6641C35.224 11.987 35.5417 11.4115 35.9531 10.9375C36.3698 10.4635 36.8672 10.099 37.4453 9.84375C38.0234 9.58854 38.6693 9.46094 39.3828 9.46094C40.3307 9.46094 41.1302 9.63281 41.7812 9.97656C42.4375 10.3203 42.9453 10.7943 43.3047 11.3984C43.6693 12.0026 43.888 12.6901 43.9609 13.4609H41.6172C41.5911 13.0026 41.5 12.6146 41.3438 12.2969C41.1875 11.974 40.9505 11.7318 40.6328 11.5703C40.3203 11.4036 39.9036 11.3203 39.3828 11.3203C38.9922 11.3203 38.651 11.3932 38.3594 11.5391C38.0677 11.6849 37.8229 11.9062 37.625 12.2031C37.4271 12.5 37.2786 12.875 37.1797 13.3281C37.0859 13.776 37.0391 14.3021 37.0391 14.9062V15.7109C37.0391 16.2995 37.0833 16.8177 37.1719 17.2656C37.2604 17.7083 37.3958 18.0833 37.5781 18.3906C37.7656 18.6927 38.0052 18.9219 38.2969 19.0781C38.5938 19.2292 38.9505 19.3047 39.3672 19.3047C39.8568 19.3047 40.2604 19.2266 40.5781 19.0703C40.8958 18.9141 41.138 18.6823 41.3047 18.375C41.4766 18.0677 41.5781 17.6849 41.6094 17.2266ZM47.5391 9V21H45.2891V9H47.5391ZM47.2188 16.4766H46.6016C46.6068 15.888 46.6849 15.3464 46.8359 14.8516C46.987 14.3516 47.2031 13.9193 47.4844 13.5547C47.7656 13.1849 48.1016 12.8984 48.4922 12.6953C48.888 12.4922 49.3255 12.3906 49.8047 12.3906C50.2214 12.3906 50.599 12.4505 50.9375 12.5703C51.2812 12.6849 51.5755 12.8724 51.8203 13.1328C52.0703 13.388 52.263 13.724 52.3984 14.1406C52.5339 14.5573 52.6016 15.0625 52.6016 15.6562V21H50.3359V15.6406C50.3359 15.2656 50.2812 14.9714 50.1719 14.7578C50.0677 14.5391 49.9141 14.3854 49.7109 14.2969C49.513 14.2031 49.2682 14.1562 48.9766 14.1562C48.6536 14.1562 48.3776 14.2161 48.1484 14.3359C47.9245 14.4557 47.7448 14.6224 47.6094 14.8359C47.474 15.0443 47.375 15.2891 47.3125 15.5703C47.25 15.8516 47.2188 16.1536 47.2188 16.4766ZM56.6875 12.5469V21H54.4297V12.5469H56.6875ZM54.2891 10.3438C54.2891 10.0156 54.4036 9.74479 54.6328 9.53125C54.862 9.31771 55.1693 9.21094 55.5547 9.21094C55.9349 9.21094 56.2396 9.31771 56.4688 9.53125C56.7031 9.74479 56.8203 10.0156 56.8203 10.3438C56.8203 10.6719 56.7031 10.9427 56.4688 11.1562C56.2396 11.3698 55.9349 11.4766 55.5547 11.4766C55.1693 11.4766 54.862 11.3698 54.6328 11.1562C54.4036 10.9427 54.2891 10.6719 54.2891 10.3438ZM62.0391 19.3984C62.3151 19.3984 62.5599 19.3464 62.7734 19.2422C62.987 19.1328 63.1536 18.9818 63.2734 18.7891C63.3984 18.5911 63.4635 18.3594 63.4688 18.0938H65.5859C65.5807 18.6875 65.4219 19.2161 65.1094 19.6797C64.7969 20.138 64.3776 20.5 63.8516 20.7656C63.3255 21.026 62.737 21.1562 62.0859 21.1562C61.4297 21.1562 60.8568 21.0469 60.3672 20.8281C59.8828 20.6094 59.4792 20.3073 59.1562 19.9219C58.8333 19.5312 58.5911 19.0781 58.4297 18.5625C58.2682 18.0417 58.1875 17.4844 58.1875 16.8906V16.6641C58.1875 16.0651 58.2682 15.5078 58.4297 14.9922C58.5911 14.4714 58.8333 14.0182 59.1562 13.6328C59.4792 13.2422 59.8828 12.9375 60.3672 12.7188C60.8516 12.5 61.4193 12.3906 62.0703 12.3906C62.763 12.3906 63.3698 12.5234 63.8906 12.7891C64.4167 13.0547 64.8281 13.4349 65.125 13.9297C65.4271 14.4193 65.5807 15 65.5859 15.6719H63.4688C63.4635 15.3906 63.4036 15.1354 63.2891 14.9062C63.1797 14.6771 63.0182 14.4948 62.8047 14.3594C62.5964 14.2188 62.3385 14.1484 62.0312 14.1484C61.7031 14.1484 61.4349 14.2188 61.2266 14.3594C61.0182 14.4948 60.8568 14.6823 60.7422 14.9219C60.6276 15.1562 60.5469 15.4245 60.5 15.7266C60.4583 16.0234 60.4375 16.3359 60.4375 16.6641V16.8906C60.4375 17.2188 60.4583 17.5339 60.5 17.8359C60.5417 18.138 60.6198 18.4062 60.7344 18.6406C60.8542 18.875 61.0182 19.0599 61.2266 19.1953C61.4349 19.3307 61.7057 19.3984 62.0391 19.3984ZM69.1406 8.99219V21H66.8906V8.99219H69.1406ZM74.4688 12.5469L70.7969 16.7344L68.8281 18.7266L68.0078 17.1016L69.5703 15.1172L71.7656 12.5469H74.4688ZM72.1328 21L69.6328 17.0938L71.1875 15.7344L74.7266 21H72.1328ZM81.5 18.0234C81.5 17.8203 81.4688 17.638 81.4062 17.4766C81.349 17.3099 81.2396 17.1589 81.0781 17.0234C80.9167 16.8828 80.6901 16.7448 80.3984 16.6094C80.1068 16.474 79.7292 16.3333 79.2656 16.1875C78.75 16.0208 78.2604 15.8333 77.7969 15.625C77.3385 15.4167 76.9323 15.1745 76.5781 14.8984C76.2292 14.6172 75.9531 14.2917 75.75 13.9219C75.5521 13.5521 75.4531 13.1224 75.4531 12.6328C75.4531 12.1589 75.5573 11.7292 75.7656 11.3438C75.974 10.9531 76.2656 10.6198 76.6406 10.3438C77.0156 10.0625 77.4583 9.84635 77.9688 9.69531C78.4844 9.54427 79.0495 9.46875 79.6641 9.46875C80.5026 9.46875 81.2344 9.61979 81.8594 9.92188C82.4844 10.224 82.9688 10.638 83.3125 11.1641C83.6615 11.6901 83.8359 12.2917 83.8359 12.9688H81.5078C81.5078 12.6354 81.4375 12.3438 81.2969 12.0938C81.1615 11.8385 80.9531 11.638 80.6719 11.4922C80.3958 11.3464 80.0469 11.2734 79.625 11.2734C79.2188 11.2734 78.8802 11.3359 78.6094 11.4609C78.3385 11.5807 78.1354 11.7448 78 11.9531C77.8646 12.1562 77.7969 12.3854 77.7969 12.6406C77.7969 12.8333 77.8438 13.0078 77.9375 13.1641C78.0365 13.3203 78.1823 13.4661 78.375 13.6016C78.5677 13.737 78.8047 13.8646 79.0859 13.9844C79.3672 14.1042 79.6927 14.2214 80.0625 14.3359C80.6823 14.5234 81.2266 14.7344 81.6953 14.9688C82.1693 15.2031 82.5651 15.4661 82.8828 15.7578C83.2005 16.0495 83.4401 16.3802 83.6016 16.75C83.763 17.1198 83.8438 17.5391 83.8438 18.0078C83.8438 18.5026 83.7474 18.9453 83.5547 19.3359C83.362 19.7266 83.0833 20.0573 82.7188 20.3281C82.3542 20.599 81.9193 20.8047 81.4141 20.9453C80.9089 21.0859 80.3438 21.1562 79.7188 21.1562C79.1562 21.1562 78.6016 21.0833 78.0547 20.9375C77.5078 20.7865 77.0104 20.5599 76.5625 20.2578C76.1198 19.9557 75.7656 19.5703 75.5 19.1016C75.2344 18.6328 75.1016 18.0781 75.1016 17.4375H77.4531C77.4531 17.7917 77.5078 18.0911 77.6172 18.3359C77.7266 18.5807 77.8802 18.7786 78.0781 18.9297C78.2812 19.0807 78.5208 19.1901 78.7969 19.2578C79.0781 19.3255 79.3854 19.3594 79.7188 19.3594C80.125 19.3594 80.4583 19.3021 80.7188 19.1875C80.9844 19.0729 81.1797 18.9141 81.3047 18.7109C81.4349 18.5078 81.5 18.2786 81.5 18.0234ZM88.7891 19.3984C89.0651 19.3984 89.3099 19.3464 89.5234 19.2422C89.737 19.1328 89.9036 18.9818 90.0234 18.7891C90.1484 18.5911 90.2135 18.3594 90.2188 18.0938H92.3359C92.3307 18.6875 92.1719 19.2161 91.8594 19.6797C91.5469 20.138 91.1276 20.5 90.6016 20.7656C90.0755 21.026 89.487 21.1562 88.8359 21.1562C88.1797 21.1562 87.6068 21.0469 87.1172 20.8281C86.6328 20.6094 86.2292 20.3073 85.9062 19.9219C85.5833 19.5312 85.3411 19.0781 85.1797 18.5625C85.0182 18.0417 84.9375 17.4844 84.9375 16.8906V16.6641C84.9375 16.0651 85.0182 15.5078 85.1797 14.9922C85.3411 14.4714 85.5833 14.0182 85.9062 13.6328C86.2292 13.2422 86.6328 12.9375 87.1172 12.7188C87.6016 12.5 88.1693 12.3906 88.8203 12.3906C89.513 12.3906 90.1198 12.5234 90.6406 12.7891C91.1667 13.0547 91.5781 13.4349 91.875 13.9297C92.1771 14.4193 92.3307 15 92.3359 15.6719H90.2188C90.2135 15.3906 90.1536 15.1354 90.0391 14.9062C89.9297 14.6771 89.7682 14.4948 89.5547 14.3594C89.3464 14.2188 89.0885 14.1484 88.7812 14.1484C88.4531 14.1484 88.1849 14.2188 87.9766 14.3594C87.7682 14.4948 87.6068 14.6823 87.4922 14.9219C87.3776 15.1562 87.2969 15.4245 87.25 15.7266C87.2083 16.0234 87.1875 16.3359 87.1875 16.6641V16.8906C87.1875 17.2188 87.2083 17.5339 87.25 17.8359C87.2917 18.138 87.3698 18.4062 87.4844 18.6406C87.6042 18.875 87.7682 19.0599 87.9766 19.1953C88.1849 19.3307 88.4557 19.3984 88.7891 19.3984ZM95.8359 9V21H93.5859V9H95.8359ZM95.5156 16.4766H94.8984C94.9036 15.888 94.9818 15.3464 95.1328 14.8516C95.2839 14.3516 95.5 13.9193 95.7812 13.5547C96.0625 13.1849 96.3984 12.8984 96.7891 12.6953C97.1849 12.4922 97.6224 12.3906 98.1016 12.3906C98.5182 12.3906 98.8958 12.4505 99.2344 12.5703C99.5781 12.6849 99.8724 12.8724 100.117 13.1328C100.367 13.388 100.56 13.724 100.695 14.1406C100.831 14.5573 100.898 15.0625 100.898 15.6562V21H98.6328V15.6406C98.6328 15.2656 98.5781 14.9714 98.4688 14.7578C98.3646 14.5391 98.2109 14.3854 98.0078 14.2969C97.8099 14.2031 97.5651 14.1562 97.2734 14.1562C96.9505 14.1562 96.6745 14.2161 96.4453 14.3359C96.2214 14.4557 96.0417 14.6224 95.9062 14.8359C95.7708 15.0443 95.6719 15.2891 95.6094 15.5703C95.5469 15.8516 95.5156 16.1536 95.5156 16.4766ZM102.25 16.8594V16.6953C102.25 16.0755 102.339 15.5052 102.516 14.9844C102.693 14.4583 102.951 14.0026 103.289 13.6172C103.628 13.2318 104.044 12.9323 104.539 12.7188C105.034 12.5 105.602 12.3906 106.242 12.3906C106.883 12.3906 107.453 12.5 107.953 12.7188C108.453 12.9323 108.872 13.2318 109.211 13.6172C109.555 14.0026 109.815 14.4583 109.992 14.9844C110.169 15.5052 110.258 16.0755 110.258 16.6953V16.8594C110.258 17.474 110.169 18.0443 109.992 18.5703C109.815 19.0911 109.555 19.5469 109.211 19.9375C108.872 20.3229 108.456 20.6224 107.961 20.8359C107.466 21.0495 106.898 21.1562 106.258 21.1562C105.617 21.1562 105.047 21.0495 104.547 20.8359C104.052 20.6224 103.633 20.3229 103.289 19.9375C102.951 19.5469 102.693 19.0911 102.516 18.5703C102.339 18.0443 102.25 17.474 102.25 16.8594ZM104.5 16.6953V16.8594C104.5 17.2135 104.531 17.5443 104.594 17.8516C104.656 18.1589 104.755 18.4297 104.891 18.6641C105.031 18.8932 105.214 19.0729 105.438 19.2031C105.661 19.3333 105.935 19.3984 106.258 19.3984C106.57 19.3984 106.839 19.3333 107.062 19.2031C107.286 19.0729 107.466 18.8932 107.602 18.6641C107.737 18.4297 107.836 18.1589 107.898 17.8516C107.966 17.5443 108 17.2135 108 16.8594V16.6953C108 16.3516 107.966 16.0286 107.898 15.7266C107.836 15.4193 107.734 15.1484 107.594 14.9141C107.458 14.6745 107.279 14.487 107.055 14.3516C106.831 14.2161 106.56 14.1484 106.242 14.1484C105.924 14.1484 105.654 14.2161 105.43 14.3516C105.211 14.487 105.031 14.6745 104.891 14.9141C104.755 15.1484 104.656 15.4193 104.594 15.7266C104.531 16.0286 104.5 16.3516 104.5 16.6953ZM111.281 16.8594V16.6953C111.281 16.0755 111.37 15.5052 111.547 14.9844C111.724 14.4583 111.982 14.0026 112.32 13.6172C112.659 13.2318 113.076 12.9323 113.57 12.7188C114.065 12.5 114.633 12.3906 115.273 12.3906C115.914 12.3906 116.484 12.5 116.984 12.7188C117.484 12.9323 117.904 13.2318 118.242 13.6172C118.586 14.0026 118.846 14.4583 119.023 14.9844C119.201 15.5052 119.289 16.0755 119.289 16.6953V16.8594C119.289 17.474 119.201 18.0443 119.023 18.5703C118.846 19.0911 118.586 19.5469 118.242 19.9375C117.904 20.3229 117.487 20.6224 116.992 20.8359C116.497 21.0495 115.93 21.1562 115.289 21.1562C114.648 21.1562 114.078 21.0495 113.578 20.8359C113.083 20.6224 112.664 20.3229 112.32 19.9375C111.982 19.5469 111.724 19.0911 111.547 18.5703C111.37 18.0443 111.281 17.474 111.281 16.8594ZM113.531 16.6953V16.8594C113.531 17.2135 113.562 17.5443 113.625 17.8516C113.688 18.1589 113.786 18.4297 113.922 18.6641C114.062 18.8932 114.245 19.0729 114.469 19.2031C114.693 19.3333 114.966 19.3984 115.289 19.3984C115.602 19.3984 115.87 19.3333 116.094 19.2031C116.318 19.0729 116.497 18.8932 116.633 18.6641C116.768 18.4297 116.867 18.1589 116.93 17.8516C116.997 17.5443 117.031 17.2135 117.031 16.8594V16.6953C117.031 16.3516 116.997 16.0286 116.93 15.7266C116.867 15.4193 116.766 15.1484 116.625 14.9141C116.49 14.6745 116.31 14.487 116.086 14.3516C115.862 14.2161 115.591 14.1484 115.273 14.1484C114.956 14.1484 114.685 14.2161 114.461 14.3516C114.242 14.487 114.062 14.6745 113.922 14.9141C113.786 15.1484 113.688 15.4193 113.625 15.7266C113.562 16.0286 113.531 16.3516 113.531 16.6953ZM123.047 9V21H120.789V9H123.047Z" fill="#1D88FF"/>
<path d="M14.4696 28.8843C14.1073 28.8843 13.8133 28.5903 13.8133 28.228C13.8133 27.8657 14.1073 27.5717 14.4696 27.5717C14.8319 27.5717 15.1259 27.8657 15.1259 28.228C15.1259 28.5903 14.8319 28.8843 14.4696 28.8843ZM18.8817 28.228C18.8817 27.5909 18.3654 27.0764 17.7301 27.0764C17.0931 27.0764 16.5785 27.5927 16.5785 28.228C16.5785 28.865 17.0948 29.3796 17.7301 29.3796C18.3672 29.3796 18.8817 28.8633 18.8817 28.228ZM22.7758 28.228C22.7758 27.4212 22.1213 26.7683 21.3162 26.7683C20.5094 26.7683 19.8566 27.4229 19.8566 28.228C19.8566 29.0348 20.5111 29.6876 21.3162 29.6876C22.123 29.6876 22.7758 29.033 22.7758 28.228ZM28.7298 14.7448C27.9248 10.8945 24.9355 7.9805 21.0589 7.26994C20.8262 7.22794 20.5934 7.17193 20.4586 7.14393C18.3182 6.84465 16.1953 7.65322 16.0833 7.69348H16.0797V7.69698C15.8505 7.80723 15.658 7.90174 15.4672 7.99275C14.0111 8.67706 12.8105 9.67464 11.8321 10.9418C10.1345 13.1417 9.83347 15.7162 9.83347 18.3694C9.83347 18.4411 9.83697 18.4971 9.83347 18.6547L13.6838 18.6494C13.6838 18.5111 13.6838 18.4761 13.6855 18.4009C13.668 18.1524 13.6768 17.9231 13.6698 17.6868C13.6033 15.5271 14.1073 13.6125 15.9397 12.2334C18.2849 10.4692 21.6172 10.7335 23.5126 12.8459C25.5061 15.0721 25.4868 18.3099 23.4304 20.4748C22.396 21.5634 21.1079 22.183 19.5835 22.1917C15.2257 22.211 10.8556 22.2057 6.49593 22.2092C6.29117 22.2092 6.02865 22.2495 5.74687 22.2092C5.71537 21.9047 5.74862 21.6037 5.74862 21.3936C5.74512 17.8163 5.73287 14.239 5.75737 10.6617C5.76087 10.0859 5.86763 9.48913 6.02515 8.93258C7.10324 5.10326 11.7551 3.61913 14.8651 6.10609C15.0349 6.24435 15.2064 6.38611 15.3639 6.54363C17.6094 5.6633 19.202 5.76656 19.6396 5.81732C19.3508 5.33953 19.055 4.88099 18.7155 4.4557C16.3388 1.46645 12.4062 0.309598 8.59962 1.40694C5.13782 2.40278 2.36033 5.55304 2.05756 9.25286C1.9963 9.99317 2.00156 10.7912 2.00156 11.5613C2.00156 11.7993 1.99806 12.0286 2.00156 12.2684C2.06106 15.9209 2.00156 19.3512 2.00156 23.2173V26.0893H12.9277C14.9842 26.1365 17.1683 26.049 19.2248 26.0893C25.3013 26.203 29.9567 20.6446 28.7281 14.7448H28.7298ZM16.0797 7.69348V7.69698L16.0833 7.69348H16.0797Z" fill="#1D88FF"/>
</svg>
